<?xml version="1.0" encoding="UTF-8" standalone="no"?>
<svg
   xmlns:dc="http://purl.org/dc/elements/1.1/"
   xmlns:cc="http://creativecommons.org/ns#"
   xmlns:rdf="http://www.w3.org/1999/02/22-rdf-syntax-ns#"
   xmlns:svg="http://www.w3.org/2000/svg"
   xmlns="http://www.w3.org/2000/svg"
   xmlns:sodipodi="http://sodipodi.sourceforge.net/DTD/sodipodi-0.dtd"
   xmlns:inkscape="http://www.inkscape.org/namespaces/inkscape"
   version="1.1"
   id="svg2"
   xml:space="preserve"
   width="5333.3335"
   height="5333.3335"
   viewBox="0 0 5333.3335 5333.3335"
   sodipodi:docname="shutterstock_512544223.eps"><metadata
     id="metadata8"><rdf:RDF><cc:Work
         rdf:about=""><dc:format>image/svg+xml</dc:format><dc:type
           rdf:resource="http://purl.org/dc/dcmitype/StillImage" /></cc:Work></rdf:RDF></metadata><defs
     id="defs6" /><sodipodi:namedview
     pagecolor="#ffffff"
     bordercolor="#666666"
     borderopacity="1"
     objecttolerance="10"
     gridtolerance="10"
     guidetolerance="10"
     inkscape:pageopacity="0"
     inkscape:pageshadow="2"
     inkscape:window-width="640"
     inkscape:window-height="480"
     id="namedview4" /><g
     id="g10"
     inkscape:groupmode="layer"
     inkscape:label="ink_ext_XXXXXX"
     transform="matrix(1.3333333,0,0,-1.3333333,0,5333.3333)"><g
       id="g12"
       transform="scale(0.1)"><path
         d="M 0,40000 V 0 H 11700.6 V 40000 H 0"
         style="fill:#e8d2a4;fill-opacity:1;fill-rule:nonzero;stroke:none"
         id="path14" /><path
         d="M 40000,40000 H 11625.8 V 0 H 40000 v 40000"
         style="fill:#cdb37d;fill-opacity:1;fill-rule:nonzero;stroke:none"
         id="path16" /><path
         d="m 38529.2,10217.9 c 0,0 -7686.6,-3773.4 -12298.6,-4542.1 C 21618.6,4907.1 8249.71,10103.1 8249.71,10103.1 8459.35,9823.6 8830.78,6025.2 10857.3,3160.2 12095.2,1410 13098.4,468.102 13691.7,0 h 20027.7 c 678.8,782.699 2152.1,2595.9 2993,4487.9 1118,2515.6 1816.8,5730 1816.8,5730"
         style="fill:#e2e2e2;fill-opacity:1;fill-rule:nonzero;stroke:none"
         id="path18" /><path
         d="M 23696,36422 V 13851.2 h 6399 L 29477.1,36422 H 23696"
         style="fill:#e2e2e2;fill-opacity:1;fill-rule:nonzero;stroke:none"
         id="path20" /><path
         d="m 13549.8,34134.9 1424.8,-16589.2 c 184.9,-2059.9 1944.2,-3694.5 3915.1,-3694.5 h 35.9 l -1825.4,22543.6 c -2114,-262.1 -3560.6,-1721 -3550.4,-2259.9"
         style="fill:#e2e2e2;fill-opacity:1;fill-rule:nonzero;stroke:none"
         id="path22" /><path
         d="M 34980.8,36383.1 33783,13915.9 c 1681.7,321.8 3074.4,1809.6 3237.8,3629.8 l 1097.9,16669 c -61.2,826.4 -1069.5,1860.4 -3137.9,2168.4"
         style="fill:#e2e2e2;fill-opacity:1;fill-rule:nonzero;stroke:none"
         id="path24" /><path
         d="M 29477.1,36422 30095,13851.2 h 3010.7 c 229.4,0 455.8,22.4 677.3,64.7 l 1197.8,22467.2 c -171.9,25.6 -348,38.9 -527.8,38.9 h -4975.9"
         style="fill:#ffffff;fill-opacity:1;fill-rule:nonzero;stroke:none"
         id="path26" /><path
         d="M 17100.2,36394.8 18925.6,13851.2 H 23696 V 36422 h -6153.6 c -150.1,0 -297.6,-9.3 -442.2,-27.2"
         style="fill:#d8d8d8;fill-opacity:1;fill-rule:nonzero;stroke:none"
         id="path28" /><path
         d="m 26037.3,36972.3 c -9879.5,61.9 -12347.7,-599 -12487.5,-2837.4 -59.2,-948 5275.9,-1322 12301.1,-1292.5 7501.8,31.5 12402.5,503.7 12301.1,1450.2 -232.9,2175.3 -2050.2,2616.6 -12114.7,2679.7"
         style="fill:#f1f1f1;fill-opacity:1;fill-rule:nonzero;stroke:none"
         id="path30" /><path
         d="m 23342.2,14748.2 c -8529,0 -15313.91,-1645.5 -15398.94,-4422.9 -104.85,-3425.1 6885.14,-5801.7 15240.14,-5755.4 8528.9,47.3 15865.2,2225.5 15655.5,5895.2 -158.5,2774.1 -6967.6,4283.1 -15496.7,4283.1"
         style="fill:#eeeeee;fill-opacity:1;fill-rule:nonzero;stroke:none"
         id="path32" /><path
         d="m 36103.8,35859.4 c -137.3,0.1 -270.1,-14.9 -400.9,-56.4 -86.4,-27.4 -172.9,-54.4 -259.5,-80.9 -158.8,-48.7 -318,-96 -477.7,-141.9 -319.2,-91.8 -640,-177.9 -962.2,-258.3 -651.6,-162.6 -1309,-302 -1970.5,-418 -340.7,-59.8 -682.6,-113.1 -1025.2,-160.5 -856.7,-112.1 -1716.3,-177.9 -2578.8,-225.9 -444.9,-24.8 -890.4,-39.2 -1336,-43.1 -226.3,-2 -452.8,-1.5 -679.1,2.2 -222.1,3.5 -445.1,-8.1 -667.3,-9.1 -248.4,-1.1 -496.9,1.1 -745.3,6.6 -124.1,2.8 -247.8,4.8 -372,4.6 -60.1,-0.1 -120.2,1.2 -180.2,0.2 -45.8,-0.7 -100.9,-3.8 -145.1,-16 -69.2,-19 -124.5,-56.2 -178.7,-99.7 -43.6,-14.3 -87.9,-27.2 -131.2,-41.2 -104.4,-33.7 -180.2,-116.2 -195,-226.4 -14.6,-108.6 36,-213.4 130,-271.3 40.6,-25 82.5,-48.7 123.4,-73.9 71.6,-96.3 177.2,-161.1 295.4,-185.6 51.1,-10.6 102.2,-21.3 153.4,-31.7 95.3,-19.5 190.3,-37.2 286.4,-52.1 208.6,-32.3 417.6,-61.7 626.9,-89.8 407.2,-54.7 815,-108.6 1225.6,-129.1 779.5,-39 1563.3,-53.1 2343.1,-16.1 776.3,36.9 1551,105.4 2321.6,205.5 827.2,107.4 1650,241.7 2465.8,416.1 760.4,162.5 1514.2,356.2 2258.6,580.9 73,22 142.5,44.8 213.1,74.6 75.9,32.1 128.8,61.9 194,108.2 l 133.4,103 c 64.3,59.7 109.7,130.4 136.3,212.1 55.2,131 78.2,290.1 33.2,429.2 -89.7,277.1 -336.3,483.5 -635.5,483.8"
         style="fill:#ffffff;fill-opacity:1;fill-rule:nonzero;stroke:none"
         id="path34" /><path
         d="m 26445.1,36126.5 c -1312.4,0 -2376.4,-354.7 -2376.4,-792.1 0,-437.5 1064,-792.2 2376.4,-792.2 1312.4,0 2376.3,354.7 2376.3,792.2 0,437.4 -1063.9,792.1 -2376.3,792.1"
         style="fill:#d8d8d8;fill-opacity:1;fill-rule:nonzero;stroke:none"
         id="path36" /><path
         d="m 197.793,24285.2 10.187,-10918.9 765.168,9.2 6498.682,1276.5 47,11015.5 L 973.148,24285.2 H 197.793"
         style="fill:#934f00;fill-opacity:1;fill-rule:nonzero;stroke:none"
         id="path38" /><path
         d="m 197.793,13339.2 h 775.355 v 10945.7 l -779.199,226.7 3.844,-11172.4"
         style="fill:#ac5704;fill-opacity:1;fill-rule:nonzero;stroke:none"
         id="path40" /><path
         d="m 23435.4,15598.6 c -8529,0 -15443.16,-2252.6 -15443.16,-5031.3 0,-2778.7 6755.36,-5147 15284.36,-5147 8529.1,0 15602,2368.3 15602,5147 0,2778.7 -6914.1,5031.3 -15443.2,5031.3"
         style="fill:#ffffff;fill-opacity:1;fill-rule:nonzero;stroke:none"
         id="path42" /><path
         d="m 23551.9,14713.6 c -6483.6,0 -11739.6,-1517.4 -11739.6,-3389.2 0,-1871.7 5256,-3389.1 11739.6,-3389.1 6483.6,0 11739.6,1517.4 11739.6,3389.1 0,1871.8 -5256,3389.2 -11739.6,3389.2"
         style="fill:#d1d1d1;fill-opacity:1;fill-rule:nonzero;stroke:none"
         id="path44" /><path
         d="m 33386.7,29769 c -1607.7,314.6 -3215.4,-1258.2 -3215.4,-1258.2 0,0 -2376.5,-2201.8 -3355.1,-4648.3 -978.6,-2446.5 -629.1,-4648.3 -629.1,-4927.9 0,0 3005.6,-5172.6 3355.1,-4019.2 349.5,1153.3 734,1782.4 2027.1,3704.6 1293.2,1922.3 2309.6,2253 3809.6,3949.4 978.6,1106.7 1188.2,1957.2 1467.9,3215.4 279.5,1258.2 -699,2586.2 -699,2586.2 0,0 -1153.4,1083.5 -2761.1,1398"
         style="fill:#ec8b24;fill-opacity:1;fill-rule:nonzero;stroke:none"
         id="path46" /><path
         d="m 29852.1,10335.4 c -19.4,23.3 -29,53.1 -26.9,83.3 29.5,425.5 224.5,3649.7 -492.7,5475.3 -768.8,1957.2 -3040.6,5591.9 -3564.8,6116.2 -524.3,524.2 537.6,2455.8 537.6,2560.7 0,101.6 -1325,4394 -1407.4,4660.9 -2.6,8.6 -4.3,17.5 -4.9,26.6 l -193.8,2777.4 c -6.5,92.9 -113,141.9 -187.8,86.5 L 21467.6,29864 c -21.8,-16.2 -48.5,-24.4 -75.7,-23.1 l -3687.7,170.7 c -28.9,1.3 -56.3,13.3 -77,33.6 l -1570.4,1539.6 c -71.4,70 -192,24.9 -200,-74.7 -35.3,-441 -112.5,-1391 -189.6,-2265.3 -104.9,-1188.3 -104.9,-1048.5 -104.9,-1048.5 0,0 -1418.3,-2646.9 -1138.7,-4417.5 111.2,-704.7 1544.3,-1627.8 1874.9,-1832.2 40.8,-25.3 62.3,-72.8 54.2,-120.1 l -230.2,-1348.6 c -0.7,-3.7 -1.1,-7.4 -1.4,-11.1 l -242.9,-3262.3 c -0.9,-11.6 -0.1,-23.1 2.4,-34.4 l 186.1,-837.2 c 150.7,-678 129.6,-1382.9 -61.2,-2050.7 l -190.4,-666.6 c -5.4,-18.6 -15.2,-35.6 -28.6,-49.5 l -2917.9,-3020.9 c -20.8,-21.5 -32.6,-50.2 -33,-80.1 l -32.5,-2207.4 c -1,-66.9 53.9,-121.2 120.8,-119.5 l 4057.6,101.4 c 8.9,0.2 17.7,1.4 26.3,3.7 143.1,36.8 1495.1,363.8 3377.6,66.6 1992.1,-314.6 4683.3,-349.5 5976.4,-943.7 1096.3,-503.7 2469,-1208.4 2861.4,-1411.2 59.7,-30.8 132.9,-5.7 161.1,55.2 l 1419.9,3071 c 19.1,41.2 12.8,89.7 -16.2,124.7 l -935.9,1129.5"
         style="fill:#ffa11b;fill-opacity:1;fill-rule:nonzero;stroke:none"
         id="path48" /><path
         d="m 12976,19319 c -1363,104.9 -1258.2,1048.5 -1258.2,1048.5 l -209.7,-908.7 594.2,-1887.2 1078.5,-919.4 c 680,-579.7 1544.2,-898 2437.7,-898 h 957.4 l 349.5,4892.9 -629.1,-349.5 c 0,0 -1957.2,-1083.4 -3320.3,-978.6"
         style="fill:#ffa11b;fill-opacity:1;fill-rule:nonzero;stroke:none"
         id="path50" /><path
         d="m 24579.4,15323.1 -4125.2,-654.8 539.3,-7174.5 c 0,0 -610.7,-360.8 -535.9,-745.5 163.1,-838.7 1695.5,-703.7 2121.3,-587.2 425.7,116.5 604.7,243.8 651.1,563.9 46.4,320 -343.6,550 -343.6,550 l 1797.8,4623 -104.8,3425.1"
         style="fill:#ec8b24;fill-opacity:1;fill-rule:nonzero;stroke:none"
         id="path52" /><path
         d="m 12973.4,10853.5 c -227.6,94 -448.6,-16.5 -534,-125.2 -47.3,161.7 -77.7,442.6 -310.1,747.5 -196.6,257.9 -620.8,274.9 -902.1,113.4 -341.4,-195.9 -410.9,-697.9 -364.3,-915.3 0,0 -309.6,-72.1 -401.8,-281.8 -74,-168.7 -68.7,-361.5 -40.1,-543.4 130.6,-829 754,-1561 1551.7,-1821.9 295.8,-90.4 528.8,-102 739,-60.5 278.6,55 458.6,338.5 597.3,586.3 295,527.1 342.2,1186.1 125.4,1749.9 -88.5,229.9 -233.3,457 -461,551"
         style="fill:#ec8b24;fill-opacity:1;fill-rule:nonzero;stroke:none"
         id="path54" /><path
         d="m 30860,8414 c 0,0 189.2,652.5 -128.2,885.3 -261.4,191.9 -542.4,238.7 -803.7,46.6 -261.4,-192 -462.9,-459 -404.4,-778 -31.8,244.2 -342.1,406.1 -578.8,338.2 -236.8,-68 -406.1,-277.5 -519.7,-496 -278.4,-536 -305.2,-1196.2 -71.1,-1752.9 110.1,-261.8 282.2,-507.3 528.1,-649.5 245.8,-142.2 970.7,-232 1232.3,-121.5 773.1,326.7 1099.3,865.4 1386.2,1654.2 93.1,256.3 122.9,717.8 -35,908.6 -279.6,337.8 -605.7,-35 -605.7,-35"
         style="fill:#ec8b24;fill-opacity:1;fill-rule:nonzero;stroke:none"
         id="path56" /><path
         d="m 20123.3,26367.2 c -244.5,0 -442.7,-312.9 -442.7,-698.9 0,-386 198.2,-699 442.7,-699 244.4,0 442.6,313 442.6,699 0,386 -198.2,698.9 -442.6,698.9"
         style="fill:#934f00;fill-opacity:1;fill-rule:nonzero;stroke:none"
         id="path58" /><path
         d="m 16467.9,26504.6 c -218.7,0 -396,-297.3 -396,-664 0,-366.7 177.3,-664 396,-664 218.8,0 396.1,297.3 396.1,664 0,366.7 -177.3,664 -396.1,664"
         style="fill:#934f00;fill-opacity:1;fill-rule:nonzero;stroke:none"
         id="path60" /><path
         d="m 20462.1,23624.3 c -27.1,17.3 -63.1,9.3 -80.4,-17.8 -378.3,-593.7 -845.7,-689.1 -1171.2,-664.6 -587.4,44.2 -1126.8,495.9 -1309,907.1 -10,22.5 -33.1,36.4 -57.7,34.4 -24.6,-1.9 -45.4,-19.1 -51.8,-42.9 -119.7,-446.5 -385.4,-746.5 -710.6,-802.4 -307.1,-52.9 -622.7,119.3 -865.6,472.3 -18.3,26.5 -54.5,33.2 -81,14.9 -26.5,-18.2 -33.2,-54.5 -15,-81 269.8,-392 627.5,-581.9 981.3,-521 335.5,57.7 613.2,334.1 760.8,749.7 110.6,-185.9 279.2,-367.5 478.3,-512.7 266.1,-194 572.1,-312.8 861.6,-334.6 32.4,-2.4 66.1,-3.8 100.8,-3.8 348.4,0 805.2,138 1177.4,722 17.2,27.1 9.3,63.1 -17.9,80.4"
         style="fill:#d67a00;fill-opacity:1;fill-rule:nonzero;stroke:none"
         id="path62" /><path
         d="m 17037.8,24760 v 0 c -72.5,6.8 -126.7,-64.1 -102.3,-132.6 143.5,-403.3 473.9,-735.5 896.4,-809.4 229.9,-40.2 831.8,426.7 830.9,790.2 l -72,79.8 c -508.9,249.8 -916.9,249.8 -1553,72"
         style="fill:#934f00;fill-opacity:1;fill-rule:nonzero;stroke:none"
         id="path64" /><path
         d="m 2774.65,4907.2 4891.51,1956.6 v 8385.4 l -5799.93,1118.1 c 0,-279.5 908.42,-11460.1 908.42,-11460.1"
         style="fill:#d8d8d8;fill-opacity:1;fill-rule:nonzero;stroke:none"
         id="path66" /><path
         d="m 10089.2,23097.1 -5136.69,-929.9 431.6,-8056.9 c 0,0 5465.59,2293.1 5500.69,2316 1407.6,918 1591.2,1345.9 1591.2,3121.2 0,1775.3 -1016.7,3549.6 -2386.8,3549.6"
         style="fill:#ffffff;fill-opacity:1;fill-rule:nonzero;stroke:none"
         id="path68" /><path
         d="m 4952.51,22167.2 c -1910.34,0 -3458.98,-1814.6 -3458.98,-4053 0,-2238.4 1548.64,-4053 3458.98,-4053 1910.36,0 3459,1814.6 3459,4053 0,2238.4 -1548.64,4053 -3459,4053"
         style="fill:#e2e2e2;fill-opacity:1;fill-rule:nonzero;stroke:none"
         id="path70" /><path
         d="m 4882.64,19651.5 c -791.16,0 -1432.51,-641.3 -1432.51,-1432.5 0,-791.1 641.35,-1432.5 1432.51,-1432.5 791.15,0 1432.51,641.4 1432.51,1432.5 0,791.2 -641.36,1432.5 -1432.51,1432.5"
         style="fill:#848484;fill-opacity:1;fill-rule:nonzero;stroke:none"
         id="path72" /><path
         d="m 20112,15408.7 92.6,-65.4 c 239.5,-1169.2 479.1,-2338.4 718.7,-3507.6 71.2,-347.7 144.4,-700.8 310.3,-1014.5 165.9,-313.7 440.4,-588.4 785.9,-669.7 567.7,-133.6 1116.6,274.9 1504.7,710.2 954.3,1070.6 924.5,3168.3 985.3,4601.2 -1473.8,850.3 -2777.5,465.8 -4397.5,-54.2"
         style="fill:#ffa11b;fill-opacity:1;fill-rule:nonzero;stroke:none"
         id="path74" /><path
         d="m 21858.6,7035.8 c -259.1,0 -469.1,-179.1 -469.1,-400 0,-221 210,-400.1 469.1,-400.1 259,0 469,179.1 469,400.1 0,220.9 -210,400 -469,400"
         style="fill:#ffa11b;fill-opacity:1;fill-rule:nonzero;stroke:none"
         id="path76" /><path
         d="m 22775.7,7051.1 c -186.5,0 -337.8,-161.6 -337.8,-361.1 0,-199.4 151.3,-361.1 337.8,-361.1 186.6,0 337.8,161.7 337.8,361.1 0,199.5 -151.2,361.1 -337.8,361.1"
         style="fill:#ffa11b;fill-opacity:1;fill-rule:nonzero;stroke:none"
         id="path78" /><path
         d="m 20946.9,7121 c -186.6,0 -337.8,-161.6 -337.8,-361.1 0,-199.4 151.2,-361.1 337.8,-361.1 186.5,0 337.8,161.7 337.8,361.1 0,199.5 -151.3,361.1 -337.8,361.1"
         style="fill:#ffa11b;fill-opacity:1;fill-rule:nonzero;stroke:none"
         id="path80" /><path
         d="m 11575.4,11116.6 c -221.9,0 -401.8,-187.8 -401.8,-419.4 0,-231.6 179.9,-419.4 401.8,-419.4 222,0 401.9,187.8 401.9,419.4 0,231.6 -179.9,419.4 -401.9,419.4"
         style="fill:#ffa11b;fill-opacity:1;fill-rule:nonzero;stroke:none"
         id="path82" /><path
         d="m 12880.1,10487.5 c -170.5,0 -308.7,-148.6 -308.7,-332 0,-183.3 138.2,-332 308.7,-332 170.5,0 308.7,148.7 308.7,332 0,183.4 -138.2,332 -308.7,332"
         style="fill:#ffa11b;fill-opacity:1;fill-rule:nonzero;stroke:none"
         id="path84" /><path
         d="m 10882.3,10114.8 c -154.4,0 -279.5,-138.2 -279.5,-308.7 0,-170.5 125.1,-308.7 279.5,-308.7 154.4,0 279.6,138.2 279.6,308.7 0,170.5 -125.2,308.7 -279.6,308.7"
         style="fill:#ffa11b;fill-opacity:1;fill-rule:nonzero;stroke:none"
         id="path86" /><path
         d="m 11989,9788.6 c -347.4,0 -629.1,-271.2 -629.1,-605.7 0,-334.6 281.7,-605.8 629.1,-605.8 347.4,0 629,271.2 629,605.8 0,334.5 -281.6,605.7 -629,605.7"
         style="fill:#ffa11b;fill-opacity:1;fill-rule:nonzero;stroke:none"
         id="path88" /><path
         d="m 17659.3,12527.1 c 209.7,-419.4 559.2,-692.7 559.2,-1572.7 0,-1013.6 -209.7,-1153.4 -838.8,-1782.5 -629.1,-629 -4124.1,-838.8 -4228.9,-838.8 0,0 3425.1,-209.7 3844.5,-93.1 419.4,116.5 2239.2,209 2344,209 104.9,0 -72.3,1561.7 -421.8,2785 -349.5,1223.2 -1467.9,1712.5 -1258.2,1293.1"
         style="fill:#ec8b24;fill-opacity:1;fill-rule:nonzero;stroke:none"
         id="path90" /><path
         d="m 14758.5,16546.3 c -873.8,104.9 -2201.9,664.1 -2201.9,664.1 0,0 873.8,-873.7 1677.6,-1188.3 803.9,-314.5 1957.2,-279.6 1957.2,-279.6 0,0 978.6,-34.9 1223.3,244.7 244.6,279.6 0,803.8 0,803.8 0,0 -1782.5,-349.5 -2656.2,-244.7"
         style="fill:#ec8b24;fill-opacity:1;fill-rule:nonzero;stroke:none"
         id="path92" /><path
         d="m 18777.7,21963.6 c -2423.8,-20.9 -4354.1,1815.2 -4354.1,1815.2 0,0 474.7,-1023 1942.6,-1873.5 1467.9,-850.4 2176.9,-811.7 2935.8,-780.5 2551.3,104.8 4473.5,664 4997.8,1712.5 44.2,88.4 -1467.9,-838.8 -5522.1,-873.7"
         style="fill:#ec8b24;fill-opacity:1;fill-rule:nonzero;stroke:none"
         id="path94" /><path
         d="m 24257.4,31416.1 c -469.3,-515.1 -1822.4,-2025.7 -1764.6,-2257 69.9,-279.5 1729.8,-1170.6 1729.8,-1170.6 0,0 209.7,-52.4 314.5,227.1 87.3,232.8 -55.6,2415.9 -105.8,3140.1 -6.1,87.9 -114.6,125.5 -173.9,60.4"
         style="fill:#f38618;fill-opacity:1;fill-rule:nonzero;stroke:none"
         id="path96" /><path
         d="m 28282.4,787.898 c 1308.4,483.902 2576.7,1073.902 3779.9,1780.402 320.2,188 644,377.3 946.9,592.4 200,141.9 407.1,280.9 581.2,453.6 139,137.9 302.4,256.2 419.4,414.7 110.4,100.4 207,219.4 313.9,322.8 85.8,83 148.2,187 211.5,287.4 58.4,92.6 129,223.2 129.8,340.1 5.2,41 5.3,83 2.5,126.1 -7.9,121.6 -78.5,223.9 -197.6,259.6 -45.1,13.5 -90.1,24.7 -135.5,29.4 -111.8,21.7 -245.4,-10.7 -346.6,-43.1 -114.3,-36.5 -229.9,-69.8 -334.4,-130.7 -117.9,-68.7 -245.3,-122.4 -365.4,-187.3 -112.8,-34.6 -219.9,-97.1 -323.4,-150.5 -71.7,-37.1 -142.5,-78.8 -215.6,-113.6 -77.2,-32.4 -153.2,-67 -225.1,-111.2 -65.6,-40.5 -131.5,-80.6 -197.6,-120.4 -132.4,-79.8 -263.5,-161 -394.5,-243 -261.9,-164.1 -527.1,-322.8 -795.5,-476.2 -533.9,-305.2 -1080.4,-586.7 -1635.5,-851.2 -283.2,-134.9 -569.2,-263.9 -857.6,-387.4 C 27810.9,2232.7 26959,1933 26092.2,1684.5 25194.8,1427.3 24289.8,1202.8 23375.3,1015.2 23123.2,963.5 22864.2,929 22615,864.699 22487.9,832 22359,799.602 22232.7,763.703 22105.9,727.699 21985.2,675 21857.8,640 21618,574.098 21468.4,335.602 21501,93.4023 21505.2,62.1992 21512,30.8008 21521.5,0 h 4137.2 c 240.8,52.8984 480.8,109.801 718.4,175 643.5,176.699 1279.4,381.398 1905.3,612.898"
         style="fill:#d1d1d1;fill-opacity:1;fill-rule:nonzero;stroke:none"
         id="path98" /><path
         d="m 24141.4,17859.3 c -21.1,27.4 -32.5,42.3 -34.6,45.1 10,-15.7 21.5,-30.8 34.6,-45.1"
         style="fill:#e8d2a4;fill-opacity:1;fill-rule:nonzero;stroke:none"
         id="path100" /><path
         d="m 26794.5,20557.7 c 0,0 -895.7,-949.7 -1164,-1163.4 -164.1,-124.2 -332.5,-244.8 -507.1,-353 -97.7,-60.6 -188.8,-130.1 -284.3,-194 -79,-52.9 -165.9,-100.6 -234.4,-166.7 -41.2,-39.8 -74.3,-86.4 -106.3,-133.8 -1.3,-0.9 -2.5,-1.9 -3.8,-2.8 -56.6,-42.4 -113,-82 -147.4,-147.1 -31.9,-60.4 -40.6,-112.2 -49.6,-178.6 -0.7,-5.3 -1.4,-10.5 -2.2,-15.7 0.8,5.3 1.5,10.5 2.2,15.7 3.5,26.3 7,52.7 10.6,79.1 -6.4,-46.8 -41.2,-179.3 -7.3,-50.8 -20.7,-78.5 -6,-154.7 35.3,-219.6 2.7,-3.4 19.6,-25.3 50.8,-65.7 83.3,-64.1 87.7,-67.7 12.9,-10.9 23.5,-25.4 50.6,-46.9 81.3,-64.4 58.3,-33.8 121.1,-50.8 188.5,-51 33.8,-2.1 67.5,-0.9 101.4,0.6 46.8,-9.9 93.6,-18.1 142.9,-22.9 83.7,-8.2 169.4,7.7 250.5,28.2 83,21.1 165.3,44.4 246.9,70.2 208.6,65.7 407.3,171.2 596.2,280.9 194.4,112.9 372.6,254.4 545.8,397.1 136.4,112.4 266.4,232.5 388.9,359.8 66.2,68.8 477.9,503.6 471.1,619.2 0,0 -533.9,904.6 -618.9,989.6"
         style="fill:#f38618;fill-opacity:1;fill-rule:nonzero;stroke:none"
         id="path102" /><path
         d="m 24297.6,18218.3 c -0.7,-5.2 -1.4,-10.4 -2.2,-15.7 0.8,5.2 1.5,10.4 2.2,15.7"
         style="fill:#f38618;fill-opacity:1;fill-rule:nonzero;stroke:none"
         id="path104" /><path
         d="m 24106.8,17904.4 c -0.1,0.1 -0.1,0.1 -0.1,0.2 -0.5,0.6 -0.4,0.4 0.1,-0.2"
         style="fill:#e8d2a4;fill-opacity:1;fill-rule:nonzero;stroke:none"
         id="path106" /><path
         d="m 19969.3,27996 c -0.3,6.3 -1.1,10.9 -2.7,12.5 1,-4.9 1.9,-9 2.7,-12.5"
         style="fill:#e8d2a4;fill-opacity:1;fill-rule:nonzero;stroke:none"
         id="path108" /><path
         d="m 30407.5,20292.8 c -113.6,104.3 -239.6,151.1 -393.7,163.1 -46.4,3.7 -92.6,8.1 -138.7,13.3 -295.3,46.1 -583.9,126.2 -861.4,237.1 -310.4,138.1 -606.3,314.5 -879.1,517.1 -190.8,153.2 -361.1,325.1 -534.6,497.6 -89.9,89.5 -171.2,185.7 -265.7,270.2 -25.4,22.7 -50.5,45.8 -75.3,69.2 -55.5,52.6 -109.9,90 -179.8,116.9 -19.6,13.5 -102.1,39.4 -115.8,45.6 -21.9,2.9 -43.8,5.9 -65.7,8.8 -6.6,-0.9 -12.9,-1.7 -18.8,-2.5 -73.6,-9.9 -146.6,-23 -199.3,-83.1 -41.1,-46.9 -71.2,-86.2 -88.1,-147.5 -11.2,-40.5 -10.6,-68.6 -10.6,-101.1 -10.6,-63.7 -14.6,-126.1 2,-192.9 6.8,-27 15.7,-53.8 23.9,-80.4 27.9,-90.4 58.1,-180.9 102.1,-265 75.4,-144.1 165.3,-283.3 266.2,-410.5 159.2,-200.9 335.9,-387 529.7,-554.8 450.2,-389.5 968.8,-674 1534.6,-858.9 316.2,-103.3 643.6,-160.8 974.4,-192.7 133.9,-13 302,71.4 393.7,163.1 96.6,96.5 169.3,255 163.1,393.7 -6.5,144 -53.8,293.4 -163.1,393.7"
         style="fill:#d67a00;fill-opacity:1;fill-rule:nonzero;stroke:none"
         id="path110" /><path
         d="m 26809,22334 c 0.7,0.1 1.3,0.2 2,0.3 -89.8,-12.1 -90.4,-12.1 -2,-0.3"
         style="fill:#e8d2a4;fill-opacity:1;fill-rule:nonzero;stroke:none"
         id="path112" /><path
         d="m 26893.5,22327.7 c 6.3,-0.8 12.5,-1.6 18.7,-2.5 -19.6,4.5 -23.6,4.8 -18.7,2.5"
         style="fill:#e8d2a4;fill-opacity:1;fill-rule:nonzero;stroke:none"
         id="path114" /><path
         d="m 32008.5,23036.1 c -81.1,80.6 -176.7,136.3 -286.7,167.1 -103.5,42.4 -228.8,40.9 -340.8,55.8 -21.7,2.8 -43.5,5.7 -65.2,8.6 -467.1,64.3 -929.2,148.4 -1368.9,321.9 -263.1,118.6 -511.8,266.6 -741.8,441.4 l 116,-89.6 c -93.1,72.7 -190.3,139.3 -285.3,209.3 -131.5,107.3 -252.8,225.3 -381.6,335.9 -71.4,61.2 -140.4,125.2 -206.8,191.8 -82.5,82.8 -177,138.7 -276.1,197.7 -198.4,118.2 -437.4,-35.1 -445,-255.4 -3.1,-88 -2.9,-169.6 13.7,-257.5 12.6,-66.4 43.3,-131 69.1,-193.2 62.4,-150.8 123.1,-300 214.9,-435.4 166.3,-245.2 353.3,-493.6 580.8,-685.7 236,-199.2 488.3,-382.3 760.6,-528.8 296,-159.2 612,-281.2 937,-366.3 179,-47 360.4,-84.4 542.2,-118.5 87.3,-16.4 174.8,-32 262.2,-47.5 141.4,-25.2 301.7,-72.4 442.2,-60.8 167.1,13.7 340.9,61.1 459.5,190.3 98.5,107.3 159.2,228.1 178.7,373.1 18.6,138.5 0.9,293.3 -77.1,414.3 -33.9,43.9 -67.7,87.7 -101.6,131.5"
         style="fill:#d67a00;fill-opacity:1;fill-rule:nonzero;stroke:none"
         id="path116" /><path
         d="m 34157.3,26240.8 c -15.6,55.4 -43.7,103.6 -84.2,144.5 -90.3,116.8 -198.7,186.7 -340.3,234.7 -142.6,48.4 -300.3,24.5 -448.3,29.3 -68.5,2.2 -136.9,7.2 -205.1,14.3 -223.7,36.5 -444.3,93 -655.9,174.4 -170.3,78.3 -332.2,172.6 -483.9,282.6 -165.6,136.3 -315.4,290.1 -447.6,459.2 30.9,-39.9 61.7,-79.9 92.6,-119.9 -66.7,86.4 -136.7,169.5 -204.8,254.4 -99.3,135.3 -189.9,276.4 -303.1,401.2 -46.3,51 -95.3,98.4 -139.1,151.8 -117.1,143 -299.6,236.1 -480.4,133.9 -207.2,-117.2 -197.6,-379.2 -206.7,-586.1 -4.2,-96 16.4,-194.6 30.1,-289 9.5,-65.6 34.1,-126.3 58.4,-187.8 62.4,-157.6 126.7,-333.9 222.6,-476.3 96.1,-142.7 202.2,-280 315.5,-409.5 422.4,-482.9 999.7,-831.2 1612.8,-1012.4 200.2,-59.1 411.8,-85.7 618.7,-106.8 81.2,-8.3 162.8,-13.1 244.5,-14.4 39.2,-0.7 78.4,-0.5 117.5,0.5 16.4,0.4 32.7,0.8 49,1.7 159.2,8.7 226.2,33.9 369.7,101.8 44.2,34.1 88.4,68.3 132.6,102.4 34.1,44.2 68.2,88.4 102.4,132.6 74.5,127.3 97.1,273.1 77.7,417.6 -0.2,59.1 -15.1,114.2 -44.7,165.3"
         style="fill:#d67a00;fill-opacity:1;fill-rule:nonzero;stroke:none"
         id="path118" /><path
         d="m 18850.1,29952.6 c -337.8,-1642.5 244.6,-3634.4 291.2,-2504.5 46.6,1130 873.7,2446.3 873.7,2446.3 0,0 -1155.5,103.9 -1164.9,58.2"
         style="fill:#f38618;fill-opacity:1;fill-rule:nonzero;stroke:none"
         id="path120" /><path
         d="m 20026.6,27727.7 1001.8,2131.7 -547.5,11.7 c -244.6,-104.9 -605.7,-1875.5 -454.3,-2143.4"
         style="fill:#f38618;fill-opacity:1;fill-rule:nonzero;stroke:none"
         id="path122" /><path
         d="m 17976.4,27774.3 652.4,2201.6 -547.5,11.7 c -244.6,-104.9 -256.3,-1945.4 -104.9,-2213.3"
         style="fill:#f38618;fill-opacity:1;fill-rule:nonzero;stroke:none"
         id="path124" /><path
         d="m 6193.07,18226.9 c -183.39,-52 -1662.19,-346.6 -2003.33,-358.8 -257.87,-9.2 -550.16,-19.6 -778.97,87 -162.23,75.6 -325.78,202.4 -405.31,472.2 l -1343.58,4556.8 c -33.46,113.5 -152.57,178.4 -266.09,144.9 -113.49,-33.5 -178.37,-152.6 -144.9,-266.1 l 1343.59,-4556.8 c 77.25,-262 235.29,-553.1 635.37,-739.4 130.75,-60.9 268.07,-95 404.56,-113.3 199.78,-26.7 397.76,-19.6 570.61,-13.5 236.74,8.5 862.31,121.9 1214.14,188.8 225.21,42.8 455.07,88.8 630.65,126.2 86.11,18.4 154.84,33.7 204.27,45.7 19.33,42.3 128.46,368 84.72,436.2 -28.2,44 -101.4,9.7 -145.73,-9.9"
         style="fill:#aeaeae;fill-opacity:1;fill-rule:nonzero;stroke:none"
         id="path126" /><path
         d="m 2450.01,20040.9 c -65.12,228.7 -130.24,457.4 -195.37,686.1 -129.32,454.2 -254.26,910.2 -392.7,1361.7 -38.75,126.3 -72.63,255.7 -118.5,379.6 -11.41,30.9 -92.61,300.2 -153.89,241.2 -32.29,-31 -24.21,-75.3 -16.57,-115.9 10.62,-56.5 21.02,-113 32.64,-169.2 23.25,-112.6 57.56,-223.6 87.09,-334.7 59.31,-223.2 124.14,-444.8 187.33,-666.9 127.4,-447.8 256.16,-895.1 384.78,-1342.5 35.73,-124.2 73.07,-247.9 110.53,-371.7 38.23,-126.2 68.02,-256.8 137.23,-370.2 22.64,-37.1 95.88,-38.4 95.37,16.8 -1.11,119.1 -33.51,227.7 -64.31,341.9 -30.91,114.7 -61.1,229.6 -93.63,343.8"
         style="fill:#e2e2e2;fill-opacity:1;fill-rule:nonzero;stroke:none"
         id="path128" /><path
         d="m 5509.61,18025.5 c -222.32,-69.6 -449.83,-116.1 -681.1,-143.6 -114.86,-13.6 -230.2,-15.4 -345.12,-26.3 -93.83,-8.9 -214.31,16.9 -288.77,-51.7 -6.45,-5.9 -4.92,-15.2 0,-21.3 64.3,-80.3 195,-65.5 288.77,-74.6 119.66,-11.7 244.64,-1.6 364.23,8 240.1,19.1 478.87,68.6 709.29,138 109.43,33 62.26,205.9 -47.3,171.5"
         style="fill:#e2e2e2;fill-opacity:1;fill-rule:nonzero;stroke:none"
         id="path130" /><path
         d="m 193.949,24511.6 795.84,-226.7 6529.041,1382.6 -835.73,190.9 -6489.151,-1346.8"
         style="fill:#bd600e;fill-opacity:1;fill-rule:nonzero;stroke:none"
         id="path132" /><path
         d="m 30293.6,8779.2 c -191.9,111.5 -441.9,39.6 -558.2,-160.7 -116.4,-200.2 -55.1,-452.9 136.8,-564.5 191.9,-111.5 441.8,-39.5 558.2,160.7 116.3,200.3 55.1,453 -136.8,564.5"
         style="fill:#ffa11b;fill-opacity:1;fill-rule:nonzero;stroke:none"
         id="path134" /><path
         d="m 31105.6,7579.9 c -147.4,85.6 -341.6,26.5 -433.7,-132 -92.1,-158.5 -47.3,-356.5 100.1,-442.1 147.4,-85.7 341.6,-26.6 433.7,131.9 92.1,158.5 47.3,356.5 -100.1,442.2"
         style="fill:#ffa11b;fill-opacity:1;fill-rule:nonzero;stroke:none"
         id="path136" /><path
         d="m 29191,8261.3 c -133.5,77.5 -311.2,20.9 -396.8,-126.5 -85.7,-147.4 -46.9,-329.8 86.6,-407.3 133.5,-77.6 311.2,-21 396.8,126.4 85.7,147.4 46.9,329.8 -86.6,407.4"
         style="fill:#ffa11b;fill-opacity:1;fill-rule:nonzero;stroke:none"
         id="path138" /><path
         d="m 29983.9,7423.3 c -300.3,174.5 -680.1,81.5 -848.2,-207.7 -168,-289.3 -60.8,-665.3 239.6,-839.8 300.4,-174.6 680.1,-81.6 848.2,207.7 168.1,289.2 60.8,665.2 -239.6,839.8"
         style="fill:#ffa11b;fill-opacity:1;fill-rule:nonzero;stroke:none"
         id="path140" /><path
         d="m 28384,14308.2 c 2.9,2.3 5.8,4.7 8.8,7 -40.1,-31 -80.1,-61.9 -120.2,-92.8 37,28.7 74.2,57.2 111.4,85.8"
         style="fill:#ffa11b;fill-opacity:1;fill-rule:nonzero;stroke:none"
         id="path142" /><path
         d="m 28348.4,17804.1 c -107.5,-30.1 -200.8,-84.5 -279.9,-163.1 -79.7,-66 -160.5,-130.7 -242,-194.5 -281.8,-214.4 -571.7,-420.5 -868.8,-612.5 -161.3,-104.2 -332.6,-194.8 -491.4,-302.2 -79.7,-53.9 -160,-106.7 -241.1,-158.4 -40.5,-25.8 -81.1,-51.3 -121.9,-76.6 -59.8,-36.9 -114.7,-80.6 -169.8,-124.1 -12.6,-9.6 -25.2,-19.3 -37.9,-28.9 -71,-53.8 -117.6,-91.3 -167.5,-153.8 -65.9,-62 -131.4,-121.8 -172.8,-205.4 -63.6,-128.2 -98,-327.2 22.9,-436.2 125.5,-113.1 271,-167.4 441.2,-150.5 22.1,2.2 43.8,5.8 65.9,4.5 66.7,-3.6 116.4,-0.3 190.2,14.6 53.2,10.7 106.1,22.9 159,35 104.8,23.9 205.9,68.8 305.9,108 139.4,54.6 282.5,107.5 415.2,176.1 383.1,197.9 761.5,415 1111.5,667.4 238.7,172.1 471.8,352.7 698.4,540.5 6.9,5.7 13.6,11.8 20.2,18.2 -162.3,335.7 -346.1,692 -541.8,1054.8 -31.8,-4.3 -63.7,-8.6 -95.5,-12.9"
         style="fill:#f38618;fill-opacity:1;fill-rule:nonzero;stroke:none"
         id="path144" /><path
         d="m 28384,14297.9 c -37.2,-28.5 -74.4,-57 -111.4,-85.8 40.1,31 80.1,61.9 120.2,92.9 -3,-2.4 -5.9,-4.7 -8.8,-7.1 z m 946.1,1173.6 c -140.7,-90.7 -226,-210.2 -283,-368 -3.3,-9.2 -6.8,-18.3 -10.3,-27.5 -57,-120.3 -125.3,-234.3 -202.8,-342.4 -130.8,-157.9 -279.2,-299.6 -439.6,-427.3 -319.4,-244.7 -676.5,-435.9 -1028.7,-628.4 -178.9,-97.8 -361.1,-192.6 -531.2,-305.3 -112.8,-74.7 -233.1,-145.1 -332.6,-237 -36.7,-33.9 -71.1,-70.2 -105.8,-106 -69.5,-71.7 -115.2,-148 -129.8,-234.8 -22.9,-72.2 -45.4,-154 -0.8,-223 38.8,-60 78.3,-87.6 142.3,-114.7 33.7,-25.3 71.8,-45 116.6,-57.3 59,-16.2 110.6,-11.9 168.9,-10.8 107.7,2.1 216.2,11.2 320.8,37.2 140.1,34.8 278.8,70.6 416.7,113.4 303.6,94.2 606.6,203.5 895.5,336.3 505.2,232.5 987.9,534.4 1352.9,960.6 29,33.9 57.7,68.2 85.8,103.1 -63.3,556.8 -161.3,1106.6 -309.2,1589.1 -44,-13.2 -86.3,-31.8 -125.7,-57.2"
         style="fill:#f38618;fill-opacity:1;fill-rule:nonzero;stroke:none"
         id="path146" /><path
         d="m 24297.5,18218.2 c -0.6,-5.2 -1.3,-10.3 -2.1,-15.6 0.7,5.2 1.4,10.4 2.1,15.6"
         style="fill:#f37307;fill-opacity:1;fill-rule:nonzero;stroke:none"
         id="path148" /><path
         d="m 15837.5,28386.1 c 0,0 979.4,714.1 979.4,979.4 0,265.2 -755,1713.9 -816.2,1836.3 l -163.2,-2815.7"
         style="fill:#f38618;fill-opacity:1;fill-rule:nonzero;stroke:none"
         id="path150" /><path
         d="m 18010.5,24672.5 c -163.4,0 -295.8,-63.9 -295.8,-142.8 0,-78.9 132.4,-142.8 295.8,-142.8 163.4,0 295.9,63.9 295.9,142.8 0,78.9 -132.5,142.8 -295.9,142.8"
         style="fill:#ffa11b;fill-opacity:1;fill-rule:nonzero;stroke:none"
         id="path152" /></g></g></svg>
